<svg width="20" height="20" viewBox="0 0 20 20" fill="none" xmlns="http://www.w3.org/2000/svg">
<g clip-path="url(#clip0_48_35)">
<path d="M9.99996 18.3334C5.39746 18.3334 1.66663 14.6025 1.66663 10C1.66663 5.39752 5.39746 1.66669 9.99996 1.66669C14.6025 1.66669 18.3333 5.39752 18.3333 10C18.3333 14.6025 14.6025 18.3334 9.99996 18.3334ZM5.84413 15.2134C7.02375 16.1564 8.48969 16.6691 9.99996 16.6667C11.6416 16.6667 13.1441 16.0734 14.3058 15.09C13.7631 14.5331 13.1142 14.0908 12.3975 13.789C11.6808 13.4873 10.9109 13.3323 10.1333 13.3334C9.32712 13.3324 8.52955 13.4991 7.79118 13.8227C7.05282 14.1463 6.38978 14.6199 5.84413 15.2134V15.2134ZM4.67996 14.0167C5.38034 13.2734 6.22552 12.6814 7.16341 12.2773C8.1013 11.8731 9.11203 11.6653 10.1333 11.6667C11.118 11.6654 12.0933 11.8587 13.0031 12.2353C13.9129 12.612 14.7393 13.1647 15.435 13.8617C16.1484 12.8576 16.5697 11.6756 16.6521 10.4466C16.7345 9.21768 16.4749 7.98993 15.902 6.89957C15.3291 5.80921 14.4654 4.89887 13.4066 4.26956C12.3478 3.64024 11.1354 3.31655 9.9038 3.3344C8.67223 3.35224 7.46968 3.71092 6.42956 4.37065C5.38944 5.03038 4.55243 5.96536 4.01137 7.07186C3.47031 8.17835 3.24637 9.41311 3.36439 10.6391C3.48241 11.8652 3.93777 13.0345 4.67996 14.0175V14.0167ZM9.99996 10.8334C9.1159 10.8334 8.26806 10.4822 7.64294 9.85704C7.01782 9.23192 6.66663 8.38408 6.66663 7.50002C6.66663 6.61597 7.01782 5.76812 7.64294 5.143C8.26806 4.51788 9.1159 4.16669 9.99996 4.16669C10.884 4.16669 11.7319 4.51788 12.357 5.143C12.9821 5.76812 13.3333 6.61597 13.3333 7.50002C13.3333 8.38408 12.9821 9.23192 12.357 9.85704C11.7319 10.4822 10.884 10.8334 9.99996 10.8334ZM9.99996 9.16669C10.442 9.16669 10.8659 8.99109 11.1785 8.67853C11.491 8.36597 11.6666 7.94205 11.6666 7.50002C11.6666 7.05799 11.491 6.63407 11.1785 6.32151C10.8659 6.00895 10.442 5.83335 9.99996 5.83335C9.55793 5.83335 9.13401 6.00895 8.82145 6.32151C8.50889 6.63407 8.33329 7.05799 8.33329 7.50002C8.33329 7.94205 8.50889 8.36597 8.82145 8.67853C9.13401 8.99109 9.55793 9.16669 9.99996 9.16669Z" fill="white"/>
</g>
<defs>
<clipPath id="clip0_48_35">
<rect width="20" height="20" fill="white"/>
</clipPath>
</defs>
</svg>
