<svg width="33" height="40" viewBox="0 0 33 40" fill="none" xmlns="http://www.w3.org/2000/svg">
<g clip-path="url(#clip0_536_9104)">
<path d="M30.1653 26.0378L32.2241 27.2728C32.3511 27.3488 32.4563 27.4565 32.5293 27.5852C32.6023 27.714 32.6406 27.8595 32.6406 28.0076C32.6406 28.1556 32.6023 28.3011 32.5293 28.4299C32.4563 28.5587 32.3511 28.6663 32.2241 28.7424L17.2024 37.7554C16.936 37.9154 16.6311 38 16.3203 38C16.0095 38 15.7046 37.9154 15.4382 37.7554L0.416522 28.7424C0.289508 28.6663 0.184372 28.5587 0.111372 28.4299C0.0383718 28.3011 0 28.1556 0 28.0076C0 27.8595 0.0383718 27.714 0.111372 27.5852C0.184372 27.4565 0.289508 27.3488 0.416522 27.2728L2.47537 26.0378L16.3203 34.3451L30.1653 26.0378ZM30.1653 17.9874L32.2241 19.2224C32.3511 19.2984 32.4563 19.4061 32.5293 19.5349C32.6023 19.6636 32.6406 19.8091 32.6406 19.9572C32.6406 20.1052 32.6023 20.2507 32.5293 20.3795C32.4563 20.5083 32.3511 20.616 32.2241 20.692L16.3203 30.2343L0.416522 20.692C0.289508 20.616 0.184372 20.5083 0.111372 20.3795C0.0383718 20.2507 0 20.1052 0 19.9572C0 19.8091 0.0383718 19.6636 0.111372 19.5349C0.184372 19.4061 0.289508 19.2984 0.416522 19.2224L2.47537 17.9874L16.3203 26.2947L30.1653 17.9874ZM17.2007 2.24461L32.2241 11.2576C32.3511 11.3337 32.4563 11.4413 32.5293 11.5701C32.6023 11.6989 32.6406 11.8444 32.6406 11.9924C32.6406 12.1405 32.6023 12.286 32.5293 12.4148C32.4563 12.5435 32.3511 12.6512 32.2241 12.7272L16.3203 22.2695L0.416522 12.7272C0.289508 12.6512 0.184372 12.5435 0.111372 12.4148C0.0383718 12.286 0 12.1405 0 11.9924C0 11.8444 0.0383718 11.6989 0.111372 11.5701C0.184372 11.4413 0.289508 11.3337 0.416522 11.2576L15.4382 2.24461C15.7046 2.08456 16.0095 2 16.3203 2C16.6311 2 16.936 2.08456 17.2024 2.24461H17.2007ZM16.3203 5.7097L5.84968 11.9924L16.3203 18.2752L26.791 11.9924L16.3203 5.7097Z" fill="black"/>
</g>
<defs>
<clipPath id="clip0_536_9104">
<rect width="32.6406" height="40" fill="white"/>
</clipPath>
</defs>
</svg>
