<svg width="22" height="28" viewBox="0 0 22 28" fill="none" xmlns="http://www.w3.org/2000/svg">
<path d="M20.3316 18.0252L21.7193 18.8485C21.8049 18.8992 21.8757 18.971 21.9249 19.0568C21.9741 19.1427 22 19.2397 22 19.3384C22 19.4371 21.9741 19.5341 21.9249 19.6199C21.8757 19.7058 21.8049 19.7776 21.7193 19.8283L11.5946 25.8369C11.415 25.9436 11.2095 26 11 26C10.7905 26 10.585 25.9436 10.4054 25.8369L0.280738 19.8283C0.19513 19.7776 0.124268 19.7058 0.0750654 19.6199C0.0258628 19.5341 0 19.4371 0 19.3384C0 19.2397 0.0258628 19.1427 0.0750654 19.0568C0.124268 18.971 0.19513 18.8992 0.280738 18.8485L1.66841 18.0252L11 23.5634L20.3316 18.0252V18.0252ZM20.3316 12.6583L21.7193 13.4816C21.8049 13.5323 21.8757 13.604 21.9249 13.6899C21.9741 13.7758 22 13.8728 22 13.9715C22 14.0701 21.9741 14.1671 21.9249 14.253C21.8757 14.3389 21.8049 14.4106 21.7193 14.4613L11 20.8228L0.280738 14.4613C0.19513 14.4106 0.124268 14.3389 0.0750654 14.253C0.0258628 14.1671 0 14.0701 0 13.9715C0 13.8728 0.0258628 13.7758 0.0750654 13.6899C0.124268 13.604 0.19513 13.5323 0.280738 13.4816L1.66841 12.6583L11 18.1965L20.3316 12.6583ZM11.5934 2.16307L21.7193 8.17175C21.8049 8.22244 21.8757 8.29421 21.9249 8.38007C21.9741 8.46593 22 8.56293 22 8.66162C22 8.76031 21.9741 8.85732 21.9249 8.94317C21.8757 9.02903 21.8049 9.1008 21.7193 9.1515L11 15.513L0.280738 9.1515C0.19513 9.1008 0.124268 9.02903 0.0750654 8.94317C0.0258628 8.85732 0 8.76031 0 8.66162C0 8.56293 0.0258628 8.46593 0.0750654 8.38007C0.124268 8.29421 0.19513 8.22244 0.280738 8.17175L10.4054 2.16307C10.585 2.05637 10.7905 2 11 2C11.2095 2 11.415 2.05637 11.5946 2.16307H11.5934ZM11 4.47314L3.94272 8.66162L11 12.8501L18.0573 8.66162L11 4.47314Z" fill="black"/>
</svg>
