<svg width="90" height="39" viewBox="0 0 90 39" fill="none" xmlns="http://www.w3.org/2000/svg">
<path d="M0.000488281 0V38.8543H9.48798V23.0593H15.1256V38.8543H24.6131V0H15.1256V15.3554H9.48798V0H0.000488281ZM31.5592 0.0544295V38.8543H46.5168C48.1916 38.7434 49.3074 38.6345 50.0338 38.4691C51.3171 38.1384 52.7134 37.4224 53.7183 36.5432C55.7824 34.726 56.5088 32.2495 56.7328 29.6725C56.7328 29.0675 56.7893 28.4625 56.7893 27.8554V10.6661C56.6784 7.41917 56.3979 6.05215 55.617 4.5658C53.3833 0.548482 49.2529 0.217718 45.1791 0.0523361H31.5612L31.5592 0.0544295ZM40.9922 6.49386C42.7235 6.54829 44.2287 6.54829 44.8441 6.71367C47.2432 7.25378 47.3563 9.34513 47.3563 10.0611C47.4128 10.3919 47.4128 10.6661 47.4128 10.9969V28.1861C47.4128 28.6823 47.5238 31.0479 45.4596 31.8643C44.5657 32.2495 43.228 32.2495 40.9943 32.1951V6.49386H40.9922ZM65.3515 0V38.8543H74.839V23.0593H80.4767V38.8543H89.9641V0H80.4767V15.3554H74.839V0H65.3515Z" fill="#ECBD0B"/>
</svg>
