<svg width="30" height="30" viewBox="0 0 30 30" fill="none" xmlns="http://www.w3.org/2000/svg">
<rect x="0.5" y="0.5" width="29" height="29" rx="14.5" stroke="#565564"/>
<path d="M12.2002 8.33301H17.8002C19.9335 8.33301 21.6668 10.0663 21.6668 12.1997V17.7997C21.6668 18.8252 21.2594 19.8087 20.5343 20.5338C19.8092 21.259 18.8257 21.6663 17.8002 21.6663H12.2002C10.0668 21.6663 8.3335 19.933 8.3335 17.7997V12.1997C8.3335 11.1742 8.74088 10.1907 9.46602 9.46553C10.1912 8.74039 11.1747 8.33301 12.2002 8.33301ZM12.0668 9.66634C11.4303 9.66634 10.8199 9.9192 10.3698 10.3693C9.91969 10.8194 9.66683 11.4298 9.66683 12.0663V17.933C9.66683 19.2597 10.7402 20.333 12.0668 20.333H17.9335C18.57 20.333 19.1805 20.0802 19.6306 19.6301C20.0806 19.18 20.3335 18.5695 20.3335 17.933V12.0663C20.3335 10.7397 19.2602 9.66634 17.9335 9.66634H12.0668ZM18.5002 10.6663C18.7212 10.6663 18.9331 10.7541 19.0894 10.9104C19.2457 11.0667 19.3335 11.2787 19.3335 11.4997C19.3335 11.7207 19.2457 11.9326 19.0894 12.0889C18.9331 12.2452 18.7212 12.333 18.5002 12.333C18.2791 12.333 18.0672 12.2452 17.9109 12.0889C17.7546 11.9326 17.6668 11.7207 17.6668 11.4997C17.6668 11.2787 17.7546 11.0667 17.9109 10.9104C18.0672 10.7541 18.2791 10.6663 18.5002 10.6663ZM15.0002 11.6663C15.8842 11.6663 16.7321 12.0175 17.3572 12.6427C17.9823 13.2678 18.3335 14.1156 18.3335 14.9997C18.3335 15.8837 17.9823 16.7316 17.3572 17.3567C16.7321 17.9818 15.8842 18.333 15.0002 18.333C14.1161 18.333 13.2683 17.9818 12.6431 17.3567C12.018 16.7316 11.6668 15.8837 11.6668 14.9997C11.6668 14.1156 12.018 13.2678 12.6431 12.6427C13.2683 12.0175 14.1161 11.6663 15.0002 11.6663ZM15.0002 12.9997C14.4697 12.9997 13.961 13.2104 13.5859 13.5855C13.2109 13.9605 13.0002 14.4692 13.0002 14.9997C13.0002 15.5301 13.2109 16.0388 13.5859 16.4139C13.961 16.789 14.4697 16.9997 15.0002 16.9997C15.5306 16.9997 16.0393 16.789 16.4144 16.4139C16.7894 16.0388 17.0002 15.5301 17.0002 14.9997C17.0002 14.4692 16.7894 13.9605 16.4144 13.5855C16.0393 13.2104 15.5306 12.9997 15.0002 12.9997Z" fill="#565564"/>
</svg>
