<svg width="30" height="30" viewBox="0 0 30 30" fill="none" xmlns="http://www.w3.org/2000/svg">
<rect x="0.5" y="0.5" width="29" height="29" rx="14.5" stroke="#565564"/>
<path d="M19.6667 9C20.0203 9 20.3594 9.14048 20.6095 9.39052C20.8595 9.64057 21 9.97971 21 10.3333V19.6667C21 20.0203 20.8595 20.3594 20.6095 20.6095C20.3594 20.8595 20.0203 21 19.6667 21H10.3333C9.97971 21 9.64057 20.8595 9.39052 20.6095C9.14048 20.3594 9 20.0203 9 19.6667V10.3333C9 9.97971 9.14048 9.64057 9.39052 9.39052C9.64057 9.14048 9.97971 9 10.3333 9H19.6667ZM19.3333 19.3333V15.8C19.3333 15.2236 19.1044 14.6708 18.6968 14.2632C18.2892 13.8556 17.7364 13.6267 17.16 13.6267C16.5933 13.6267 15.9333 13.9733 15.6133 14.4933V13.7533H13.7533V19.3333H15.6133V16.0467C15.6133 15.5333 16.0267 15.1133 16.54 15.1133C16.7875 15.1133 17.0249 15.2117 17.2 15.3867C17.375 15.5617 17.4733 15.7991 17.4733 16.0467V19.3333H19.3333ZM11.5867 12.7067C11.8837 12.7067 12.1686 12.5887 12.3786 12.3786C12.5887 12.1686 12.7067 11.8837 12.7067 11.5867C12.7067 10.9667 12.2067 10.46 11.5867 10.46C11.2879 10.46 11.0013 10.5787 10.79 10.79C10.5787 11.0013 10.46 11.2879 10.46 11.5867C10.46 12.2067 10.9667 12.7067 11.5867 12.7067ZM12.5133 19.3333V13.7533H10.6667V19.3333H12.5133Z" fill="#565564"/>
</svg>
