<svg width="14" height="14" viewBox="0 0 14 14" fill="none" xmlns="http://www.w3.org/2000/svg">
<g clip-path="url(#clip0_702_11176)">
<path d="M6.99988 1.16699C7.15459 1.16699 7.30297 1.22845 7.41236 1.33785C7.52176 1.44724 7.58322 1.59562 7.58322 1.75033V3.50033C7.58322 3.65504 7.52176 3.80341 7.41236 3.9128C7.30297 4.0222 7.15459 4.08366 6.99988 4.08366C6.84517 4.08366 6.6968 4.0222 6.58741 3.9128C6.47801 3.80341 6.41655 3.65504 6.41655 3.50033V1.75033C6.41655 1.59562 6.47801 1.44724 6.58741 1.33785C6.6968 1.22845 6.84517 1.16699 6.99988 1.16699V1.16699ZM6.99988 9.91699C7.15459 9.91699 7.30297 9.97845 7.41236 10.0878C7.52176 10.1972 7.58322 10.3456 7.58322 10.5003V12.2503C7.58322 12.405 7.52176 12.5534 7.41236 12.6628C7.30297 12.7722 7.15459 12.8337 6.99988 12.8337C6.84517 12.8337 6.6968 12.7722 6.58741 12.6628C6.47801 12.5534 6.41655 12.405 6.41655 12.2503V10.5003C6.41655 10.3456 6.47801 10.1972 6.58741 10.0878C6.6968 9.97845 6.84517 9.91699 6.99988 9.91699V9.91699ZM12.0516 4.08366C12.1289 4.21764 12.1499 4.37686 12.1098 4.52629C12.0698 4.67573 11.972 4.80313 11.8381 4.88049L10.3226 5.75549C10.2562 5.7944 10.1828 5.81979 10.1066 5.83022C10.0303 5.84064 9.95281 5.83588 9.87843 5.81622C9.80406 5.79655 9.73431 5.76237 9.6732 5.71564C9.61209 5.66891 9.56082 5.61056 9.52236 5.54393C9.48389 5.47731 9.45898 5.40374 9.44907 5.32745C9.43915 5.25116 9.44442 5.17366 9.46458 5.09942C9.48473 5.02518 9.51938 4.95566 9.56651 4.89486C9.61365 4.83406 9.67234 4.78318 9.73922 4.74516L11.2547 3.87016C11.3887 3.79281 11.5479 3.77185 11.6973 3.81188C11.8468 3.85192 11.9742 3.94968 12.0516 4.08366V4.08366ZM4.47405 8.45866C4.5514 8.59264 4.57236 8.75186 4.53232 8.90129C4.49229 9.05073 4.39453 9.17813 4.26055 9.25549L2.74505 10.1305C2.67868 10.1694 2.60528 10.1948 2.52906 10.2052C2.45284 10.2156 2.37531 10.2109 2.30093 10.1912C2.22656 10.1716 2.15681 10.1374 2.0957 10.0906C2.03458 10.0439 1.98332 9.98556 1.94485 9.91893C1.90639 9.85231 1.88148 9.77874 1.87157 9.70245C1.86165 9.62616 1.86692 9.54866 1.88708 9.47442C1.90723 9.40018 1.94188 9.33066 1.98901 9.26986C2.03615 9.20906 2.09484 9.15818 2.16172 9.12016L3.67722 8.24516C3.8112 8.16781 3.97042 8.14685 4.11985 8.18688C4.26928 8.22692 4.39669 8.32468 4.47405 8.45866ZM12.0516 9.91699C11.9742 10.051 11.8468 10.1487 11.6973 10.1888C11.5479 10.2288 11.3887 10.2078 11.2547 10.1305L9.73922 9.25549C9.60633 9.17759 9.50965 9.05028 9.47028 8.90136C9.43091 8.75244 9.45204 8.59399 9.52906 8.46059C9.60608 8.32719 9.73274 8.22966 9.8814 8.1893C10.0301 8.14895 10.1886 8.16902 10.3226 8.24516L11.8381 9.12016C11.972 9.19752 12.0698 9.32493 12.1098 9.47436C12.1499 9.62379 12.1289 9.78301 12.0516 9.91699ZM4.47405 5.54199C4.39669 5.67597 4.26928 5.77373 4.11985 5.81377C3.97042 5.85381 3.8112 5.83284 3.67722 5.75549L2.16172 4.88049C2.09484 4.84247 2.03615 4.79159 1.98901 4.73079C1.94188 4.66999 1.90723 4.60047 1.88708 4.52623C1.86692 4.45199 1.86165 4.37449 1.87157 4.2982C1.88148 4.22191 1.90639 4.14834 1.94485 4.08172C1.98332 4.01509 2.03458 3.95674 2.0957 3.91001C2.15681 3.86328 2.22656 3.8291 2.30093 3.80943C2.37531 3.78977 2.45284 3.78501 2.52906 3.79543C2.60528 3.80586 2.67868 3.83125 2.74505 3.87016L4.26055 4.74516C4.39453 4.82252 4.49229 4.94993 4.53232 5.09936C4.57236 5.24879 4.5514 5.40801 4.47405 5.54199Z" fill="#565564"/>
</g>
<defs>
<clipPath id="clip0_702_11176">
<rect width="14" height="14" fill="white"/>
</clipPath>
</defs>
</svg>
