<svg width="281" height="93" viewBox="0 0 281 93" fill="none" xmlns="http://www.w3.org/2000/svg">
<g clip-path="url(#clip0_783_5528)">
<path d="M181.588 21.9797V0.912161H183.079H184.578V9.53927H196.142V0.912161H197.633H199.136V21.9797H197.649H196.142V12.0627H184.578V21.9797H183.091H181.584H181.588ZM211.279 22.3895C209.049 22.3895 207.245 21.6421 205.862 20.1514C204.48 18.6606 203.789 16.6997 203.789 14.2767C203.789 11.8497 204.476 9.88885 205.862 8.39809C207.245 6.90734 209.049 6.16397 211.279 6.16397C213.525 6.16397 215.341 6.90734 216.715 8.39809C218.09 9.88885 218.777 11.8497 218.777 14.2767C218.777 16.6957 218.09 18.6606 216.715 20.1514C215.337 21.6421 213.525 22.3895 211.279 22.3895ZM211.279 20.1594C212.701 20.1594 213.834 19.625 214.678 18.5642C215.522 17.5034 215.944 16.0769 215.944 14.2767C215.944 12.4806 215.522 11.0541 214.678 9.98931C213.834 8.9285 212.705 8.39408 211.279 8.39408C209.848 8.39408 208.719 8.9285 207.879 9.98931C207.04 11.0541 206.626 12.4846 206.626 14.2767C206.626 16.0769 207.044 17.5034 207.879 18.5642C208.719 19.625 209.848 20.1594 211.279 20.1594ZM223.092 21.9797V6.6341H224.374H225.676V8.88832L226.279 8.12485C227.452 6.81894 228.919 6.16397 230.683 6.16397C232.463 6.16397 233.829 6.62204 234.789 7.54221C235.75 8.46239 236.232 9.7683 236.232 11.46V21.9797H234.874H233.516V12.3319C233.516 10.9818 233.242 10.0094 232.7 9.41068C232.149 8.80795 231.265 8.5106 230.048 8.5106C228.742 8.5106 227.709 8.98074 226.95 9.92502C226.19 10.8693 225.809 12.1471 225.809 13.7544V21.9797H224.451H223.092ZM241.564 21.9797V6.6341H242.922H244.28V21.9797H242.922H241.564ZM241.532 0.884033H244.309V3.81733H241.532V0.884033ZM249.331 6.6341H250.609H251.911V8.81197L252.044 8.62713C253.209 6.9877 254.736 6.16799 256.632 6.16799C258.738 6.16799 260.41 6.85912 261.639 8.24138C262.869 9.62365 263.483 11.4881 263.483 13.8468C263.483 16.5109 262.861 18.6044 261.623 20.1192C260.385 21.6341 258.67 22.3935 256.468 22.3935C254.651 22.3935 253.205 21.7265 252.136 20.4045L252.044 20.288V28.0592H250.685H249.327V6.63812L249.331 6.6341ZM256.331 20.1594C257.745 20.1594 258.818 19.6491 259.55 18.6285C260.285 17.6119 260.651 16.1251 260.651 14.1682C260.651 12.2475 260.301 10.8171 259.598 9.89287C258.899 8.96868 257.814 8.5106 256.347 8.5106C254.852 8.5106 253.763 9.03297 253.072 10.0737C252.389 11.1184 252.044 12.7699 252.044 15.0281C252.044 16.6676 252.413 17.9333 253.161 18.8213C253.9 19.7134 254.961 20.1554 256.331 20.1554V20.1594ZM277.145 11.0622C277.065 10.2143 276.703 9.55534 276.052 9.08923C275.405 8.62311 274.538 8.39006 273.441 8.39006C272.315 8.39006 271.456 8.5749 270.865 8.94859C270.278 9.32228 269.985 9.86876 269.985 10.584C269.985 11.1305 270.19 11.5363 270.604 11.8176C271.014 12.0949 271.837 12.3721 273.059 12.6494L275.864 13.2802C277.431 13.6419 278.556 14.1441 279.231 14.7871C279.894 15.4179 280.227 16.3019 280.227 17.4431C280.227 18.962 279.653 20.1674 278.5 21.0555C277.346 21.9475 275.795 22.3895 273.83 22.3895C271.56 22.3895 269.868 21.9636 268.751 21.1077C267.634 20.2518 267.019 18.9138 266.895 17.0774H269.487C269.619 18.1624 270.021 18.9459 270.704 19.4281C271.383 19.9103 272.424 20.1554 273.822 20.1554C275.04 20.1554 275.968 19.9344 276.599 19.4964C277.226 19.0544 277.543 18.4155 277.543 17.5797C277.543 17.0413 277.338 16.6354 276.924 16.3582C276.506 16.0849 275.679 15.8037 274.433 15.5264L271.632 14.8996C270.109 14.554 269.033 14.0678 268.39 13.449C267.747 12.8382 267.421 11.9783 267.421 10.8653C267.421 9.42274 267.96 8.27755 269.041 7.43372C270.126 6.58588 271.592 6.16397 273.441 6.16397C275.317 6.16397 276.812 6.59793 277.921 7.46989C279.038 8.3338 279.629 9.53525 279.693 11.0662H277.133L277.145 11.0622ZM181.705 49.0865V28.019H183.196H190.798C193.603 28.019 195.841 28.9714 197.5 30.88C199.16 32.7806 199.992 35.3483 199.992 38.5668C199.992 41.7734 199.144 44.333 197.444 46.2336C195.744 48.1342 193.446 49.0865 190.557 49.0865H183.196H181.705ZM184.694 46.6515H190.175C192.325 46.6515 193.984 45.9483 195.158 44.5419C196.323 43.1396 196.91 41.1425 196.91 38.5668C196.91 35.9751 196.351 33.978 195.222 32.5677C194.097 31.1613 192.502 30.4541 190.432 30.4541H184.694V46.6515ZM204.801 49.0865V33.741H206.16H207.518V49.0865H206.16H204.801ZM204.769 27.9909H207.546V30.9242H204.769V27.9909ZM218.692 53.4302C220.243 53.4302 221.429 52.9641 222.241 52.0319C223.052 51.0956 223.458 49.7375 223.458 47.9534V47.4511L223.442 47.4672C222.325 48.8213 220.87 49.5004 219.078 49.5004C216.92 49.5004 215.205 48.7329 213.927 47.198C212.653 45.663 212.014 43.5896 212.014 40.9778C212.014 38.6753 212.641 36.8149 213.895 35.3965C215.148 33.9821 216.792 33.2749 218.817 33.2749C220.754 33.2749 222.293 34.0705 223.422 35.6657L223.619 35.9389V33.745H226.166V47.9614C226.154 50.5492 225.543 52.4699 224.33 53.7115C223.116 54.9531 221.252 55.5759 218.733 55.5759C216.908 55.5759 215.458 55.1741 214.385 54.3745C213.312 53.5709 212.661 52.4096 212.44 50.8827H215.217C215.377 51.6984 215.763 52.3292 216.37 52.7712C216.977 53.2173 217.748 53.4342 218.688 53.4342L218.692 53.4302ZM219.215 35.6175C217.7 35.6175 216.595 36.0756 215.896 36.9957C215.201 37.9159 214.851 39.3785 214.851 41.3756C214.851 43.2641 215.233 44.7147 215.988 45.7313C216.744 46.752 217.824 47.2623 219.215 47.2623C220.525 47.2623 221.586 46.7921 222.385 45.8519C223.189 44.9116 223.587 43.674 223.587 42.131C223.587 39.9612 223.225 38.3298 222.498 37.2408C221.774 36.1559 220.677 35.6135 219.215 35.6135V35.6175ZM231.257 49.0865V33.741H232.616H233.974V49.0865H232.616H231.257ZM231.225 27.9909H234.002V30.9242H231.225V27.9909ZM245.164 49.0584C244.24 49.195 243.561 49.2633 243.139 49.2633C241.954 49.2633 241.114 49.0142 240.624 48.5159C240.134 48.0217 239.888 47.1618 239.888 45.9483V35.8264H237.666V33.745H239.888V29.4616H242.601V33.745H245.16V35.8264H242.601V45.9443C242.601 46.2858 242.745 46.5591 243.035 46.76C243.324 46.9609 243.71 47.0614 244.192 47.0614H245.164V49.0584ZM253.285 49.5004C251.706 49.5004 250.46 49.0986 249.532 48.299C248.608 47.4953 248.146 46.4104 248.146 45.0402C248.146 43.666 248.584 42.569 249.452 41.7573C250.32 40.9456 251.59 40.4353 253.257 40.2384L256.954 39.7924C257.251 39.7683 257.541 39.7201 257.814 39.6518C258.163 39.5674 258.437 39.3906 258.625 39.1334C258.814 38.8722 258.915 38.5468 258.915 38.157V38.0244C258.915 37.1966 258.585 36.5537 257.934 36.0876C257.283 35.6215 256.367 35.3884 255.198 35.3884C254.081 35.3884 253.213 35.6336 252.586 36.1278C251.959 36.618 251.577 37.3493 251.449 38.3217H248.95C249.078 36.6461 249.701 35.3844 250.814 34.5406C251.927 33.6928 253.522 33.2749 255.6 33.2749C257.565 33.2749 259.059 33.6807 260.08 34.4884C261.109 35.296 261.623 36.4734 261.623 38.0244V46.4626C261.623 46.7158 261.707 46.9288 261.876 47.0855C262.041 47.2462 262.266 47.3266 262.551 47.3266C262.636 47.3266 262.752 47.3185 262.905 47.2984C263.066 47.2783 263.234 47.2502 263.415 47.21V49.0745C263.154 49.1709 262.877 49.2513 262.583 49.3035C262.29 49.3638 262.045 49.3919 261.844 49.3919C260.815 49.3919 260.072 49.1227 259.61 48.5883C259.309 48.2347 259.092 47.7364 258.963 47.0855C258.762 47.3266 258.529 47.5556 258.268 47.7766C256.91 48.9298 255.25 49.5084 253.293 49.5084L253.285 49.5004ZM258.911 43.011V41.3434C258.408 41.5725 257.854 41.7292 257.239 41.8176L254.752 42.1591C253.446 42.3319 252.49 42.6252 251.891 43.0311C251.288 43.4409 250.987 43.9955 250.987 44.6946C250.987 45.5585 251.232 46.2256 251.726 46.6917C252.212 47.1578 252.912 47.3908 253.82 47.3908C255.25 47.3908 256.452 47.0212 257.44 46.2818C258.115 45.7635 258.561 45.1808 258.782 44.5259C258.818 44.4053 258.85 44.2084 258.871 43.9392C258.903 43.6619 258.915 43.3525 258.915 43.015L258.911 43.011ZM267.482 49.0906V28.0231H268.84H270.198V49.0906H268.84H267.482ZM181.58 76.1974V55.1299H183.071H184.57V63.757H196.134V55.1299H197.625H199.128V76.1974H197.641H196.134V66.2805H184.57V76.1974H183.083H181.576H181.58ZM207.514 60.8519V70.7407C207.514 72.0265 207.775 72.9547 208.293 73.5293C208.812 74.0959 209.659 74.3812 210.833 74.3812C212.135 74.3812 213.167 73.903 213.927 72.9427C214.686 71.9783 215.068 70.6764 215.068 69.037V60.8559H216.426H217.784V76.2014H216.507H215.205V73.8628C215.024 74.1401 214.823 74.4053 214.602 74.6504C213.449 75.9563 212.006 76.6113 210.274 76.6113C208.45 76.6113 207.084 76.1773 206.168 75.3054C205.26 74.4334 204.801 73.1355 204.801 71.3916V60.8519H206.16H207.518H207.514ZM222.871 55.1299H224.23H225.588V62.8529C226.769 61.1854 228.3 60.3657 230.176 60.3817C232.282 60.3817 233.954 61.0729 235.183 62.4551C236.413 63.8374 237.028 65.7019 237.028 68.0605C237.028 70.7246 236.405 72.8181 235.167 74.333C233.929 75.8478 232.21 76.6073 230.012 76.6073C228.195 76.6073 226.749 75.9483 225.68 74.6223L225.423 74.3048V76.1974H222.871V55.1299ZM229.871 74.3772C231.286 74.3772 232.358 73.8669 233.09 72.8462C233.825 71.8296 234.191 70.3429 234.191 68.386C234.191 66.4653 233.841 65.0348 233.138 64.1106C232.439 63.1864 231.354 62.7284 229.891 62.7284C228.396 62.7284 227.307 63.2507 226.616 64.2915C225.933 65.3362 225.588 66.9877 225.588 69.2459C225.588 70.8853 225.957 72.1511 226.705 73.0391C227.444 73.9312 228.505 74.3732 229.875 74.3732L229.871 74.3772Z" fill="#ECBD0B"/>
<path d="M0.000976562 0V74.5781H18.2115V44.2606H29.0326V74.5781H47.2431V0H29.0326V29.4736H18.2115V0H0.000976562ZM60.5756 0.104474V74.5781H89.2857C92.5003 74.3651 94.642 74.1561 96.0363 73.8387C98.4995 73.2038 101.18 71.8296 103.108 70.142C107.07 66.6541 108.465 61.9006 108.895 56.9542C108.895 55.7929 109.003 54.6316 109.003 53.4664V20.4728C108.79 14.2406 108.252 11.6167 106.753 8.76373C102.465 1.05277 94.5375 0.417894 86.7181 0.100455H60.5796L60.5756 0.104474ZM78.6816 12.4645C82.0047 12.569 84.8938 12.569 86.0751 12.8864C90.68 13.9231 90.897 17.9373 90.897 19.3115C91.0055 19.9464 91.0055 20.4728 91.0055 21.1077V54.1012C91.0055 55.0536 91.2185 59.5941 87.2565 61.1612C85.5407 61.9006 82.9731 61.9006 78.6857 61.7961V12.4645H78.6816ZM125.438 0V74.5781H143.648V44.2606H154.469V74.5781H172.68V0H154.469V29.4736H143.648V0L125.438 0Z" fill="black"/>
<path fill-rule="evenodd" clip-rule="evenodd" d="M181.074 87.6895H220.5V91.8242H181.074V87.6895Z" fill="black"/>
<path fill-rule="evenodd" clip-rule="evenodd" d="M225.769 87.5208H251.931V91.6555H225.769V87.5208Z" fill="#E0B30A"/>
<path fill-rule="evenodd" clip-rule="evenodd" d="M256.431 87.9265H270.451V92.0613H256.431V87.9265Z" fill="#201E1E"/>
</g>
<defs>
<clipPath id="clip0_783_5528">
<rect width="280.236" height="92.0613" fill="white"/>
</clipPath>
</defs>
</svg>
