<svg width="37" height="40" viewBox="0 0 37 40" fill="none" xmlns="http://www.w3.org/2000/svg">
<g clip-path="url(#clip0_536_9109)">
<path d="M11.5833 10.4L7.83334 12.5L9.93334 8.75L7.83334 5L11.5833 7.1L15.3333 5L13.2333 8.75L15.3333 12.5L11.5833 10.4ZM29.5833 25.1L33.3333 23L31.2333 26.75L33.3333 30.5L29.5833 28.4L25.8333 30.5L27.9333 26.75L25.8333 23L29.5833 25.1ZM33.3333 5L31.2333 8.75L33.3333 12.5L29.5833 10.4L25.8333 12.5L27.9333 8.75L25.8333 5L29.5833 7.1L33.3333 5ZM20.3433 21.17L24.0033 17.51L20.8233 14.33L17.1633 17.99L20.3433 21.17ZM21.8883 12.935L25.3983 16.445C25.9833 17 25.9833 17.975 25.3983 18.56L7.89334 36.065C7.30834 36.65 6.33334 36.65 5.77834 36.065L2.26834 32.555C1.68334 32 1.68334 31.025 2.26834 30.44L19.7733 12.935C20.3583 12.35 21.3333 12.35 21.8883 12.935Z" fill="black"/>
</g>
<defs>
<clipPath id="clip0_536_9109">
<rect width="36" height="40" fill="white" transform="translate(0.333496)"/>
</clipPath>
</defs>
</svg>
