<svg width="25" height="28" viewBox="0 0 25 28" fill="none" xmlns="http://www.w3.org/2000/svg">
<g clip-path="url(#clip0_536_9109)">
<path d="M7.83355 7.6L5.33355 9L6.73355 6.5L5.33355 4L7.83355 5.4L10.3336 4L8.93356 6.5L10.3336 9L7.83355 7.6ZM19.8336 17.4L22.3336 16L20.9336 18.5L22.3336 21L19.8336 19.6L17.3336 21L18.7336 18.5L17.3336 16L19.8336 17.4ZM22.3336 4L20.9336 6.5L22.3336 9L19.8336 7.6L17.3336 9L18.7336 6.5L17.3336 4L19.8336 5.4L22.3336 4ZM13.6736 14.78L16.1136 12.34L13.9936 10.22L11.5536 12.66L13.6736 14.78ZM14.7036 9.29L17.0436 11.63C17.4336 12 17.4336 12.65 17.0436 13.04L5.37355 24.71C4.98355 25.1 4.33355 25.1 3.96355 24.71L1.62355 22.37C1.23355 22 1.23355 21.35 1.62355 20.96L13.2936 9.29C13.6836 8.9 14.3336 8.9 14.7036 9.29Z" fill="black"/>
</g>
<defs>
<clipPath id="clip0_536_9109">
<rect width="24" height="28" fill="white" transform="translate(0.333496)"/>
</clipPath>
</defs>
</svg>
