<svg width="14" height="14" viewBox="0 0 14 14" fill="none" xmlns="http://www.w3.org/2000/svg">
<g clip-path="url(#clip0_702_11179)">
<path d="M6.63817 1.17773C6.20833 1.57826 5.86357 2.06127 5.62445 2.59793C5.38533 3.13459 5.25675 3.71392 5.24639 4.30135C5.23602 4.88879 5.34408 5.47229 5.56412 6.01705C5.78416 6.56182 6.11167 7.05668 6.52711 7.47213C6.94256 7.88757 7.43742 8.21508 7.98218 8.43512C8.52695 8.65516 9.11045 8.76322 9.69788 8.75285C10.2853 8.74249 10.8646 8.61391 11.4013 8.37479C11.938 8.13567 12.421 7.79091 12.8215 7.36107C12.636 10.4148 10.1008 12.8333 7.00042 12.8333C3.77809 12.8333 1.1665 10.2217 1.1665 6.99998C1.1665 3.89957 3.585 1.3644 6.63817 1.17773Z" fill="#565564"/>
</g>
<defs>
<clipPath id="clip0_702_11179">
<rect width="14" height="14" fill="white"/>
</clipPath>
</defs>
</svg>
