<svg width="52" height="52" viewBox="0 0 52 52" fill="none" xmlns="http://www.w3.org/2000/svg">
<g clip-path="url(#clip0_614_12779)">
<path d="M41.9815 26.9013L19.017 42.211C18.8539 42.3195 18.6643 42.3818 18.4686 42.3912C18.2729 42.4006 18.0783 42.3566 17.9055 42.2642C17.7327 42.1717 17.5883 42.034 17.4876 41.866C17.3868 41.6979 17.3336 41.5056 17.3335 41.3097V10.6903C17.3336 10.4944 17.3868 10.3021 17.4876 10.134C17.5883 9.96592 17.7327 9.82831 17.9055 9.73581C18.0783 9.64332 18.2729 9.59942 18.4686 9.60878C18.6643 9.61815 18.8539 9.68042 19.017 9.78899L41.9815 25.0987C42.1299 25.1976 42.2515 25.3316 42.3357 25.4889C42.4198 25.6461 42.4638 25.8217 42.4638 26C42.4638 26.1783 42.4198 26.3539 42.3357 26.5111C42.2515 26.6684 42.1299 26.8024 41.9815 26.9013Z" fill="white"/>
</g>
<defs>
<clipPath id="clip0_614_12779">
<rect width="52" height="52" fill="white"/>
</clipPath>
</defs>
</svg>
