<svg width="24" height="24" viewBox="0 0 20 20" fill="none" xmlns="http://www.w3.org/2000/svg">
<g clip-path="url(#clip0_48_36)">
<path d="M10 11.6666V13.3333C8.67396 13.3333 7.40219 13.8601 6.46451 14.7978C5.52682 15.7355 5.00004 17.0072 5.00004 18.3333H3.33337C3.33337 16.5652 4.03575 14.8695 5.286 13.6193C6.53624 12.369 8.23193 11.6666 10 11.6666V11.6666ZM10 10.8333C7.23754 10.8333 5.00004 8.59581 5.00004 5.83331C5.00004 3.07081 7.23754 0.833313 10 0.833313C12.7625 0.833313 15 3.07081 15 5.83331C15 8.59581 12.7625 10.8333 10 10.8333ZM10 9.16665C11.8417 9.16665 13.3334 7.67498 13.3334 5.83331C13.3334 3.99165 11.8417 2.49998 10 2.49998C8.15837 2.49998 6.66671 3.99165 6.66671 5.83331C6.66671 7.67498 8.15837 9.16665 10 9.16665ZM12.1625 15.6766C12.0569 15.232 12.0569 14.7688 12.1625 14.3241L11.3359 13.8466L12.1692 12.4033L12.9959 12.8808C13.3277 12.5665 13.7288 12.3347 14.1667 12.2041V11.25H15.8334V12.2041C16.2767 12.3358 16.6767 12.5708 17.0042 12.8808L17.8309 12.4033L18.6642 13.8466L17.8375 14.3241C17.9431 14.7685 17.9431 15.2314 17.8375 15.6758L18.6642 16.1533L17.8309 17.5966L17.0042 17.1191C16.6724 17.4334 16.2713 17.6652 15.8334 17.7958V18.75H14.1667V17.7958C13.7288 17.6652 13.3277 17.4334 12.9959 17.1191L12.1692 17.5966L11.3359 16.1533L12.1625 15.6766V15.6766ZM15 16.25C15.3316 16.25 15.6495 16.1183 15.8839 15.8839C16.1183 15.6494 16.25 15.3315 16.25 15C16.25 14.6685 16.1183 14.3505 15.8839 14.1161C15.6495 13.8817 15.3316 13.75 15 13.75C14.6685 13.75 14.3506 13.8817 14.1162 14.1161C13.8817 14.3505 13.75 14.6685 13.75 15C13.75 15.3315 13.8817 15.6494 14.1162 15.8839C14.3506 16.1183 14.6685 16.25 15 16.25Z" fill="white"/>
</g>
<defs>
<clipPath id="clip0_48_36">
<rect width="20" height="20" fill="white"/>
</clipPath>
</defs>
</svg>
